# xmcd CD database file
# Copyright (C) 1995-1998 Ti Kan
#
# Track frame offsets:
#	150
#	12236
#	25670
#	39358
#	54869
#	66487
#	77345
#	91691
#	104804
#	118113
#
# Disc length: 1717 seconds
#
# Revision: 1
# Processed by: cddbd v1.4PL0 Copyright (c) Steve Scherf et al.
# Submitted via: CDex 1.30Release
#
DISCID=7206b30a
DTITLE=John Lee Hooker - I'm Ready
DYEAR=2002
DGENRE=Blues
TTITLE0=I'm Ready
TTITLE1=Ride 'til I Die
TTITLE2=Hoboin'
TTITLE3=I Need Love So Bad
TTITLE4=Baby, I'm Gonna Miss You
TTITLE5=Gotta Boogie (Gonna Boogie)
TTITLE6=Looking For a Woman
TTITLE7=Looking For Romance
TTITLE8=Reach My Goal
TTITLE9=Maudie
EXTD=YEAR: 2002 ID3G:   0
EXTT0=
EXTT1=
EXTT2=
EXTT3=
EXTT4=
EXTT5=
EXTT6=
EXTT7=
EXTT8=
EXTT9=
PLAYORDER=
